<svg width="176" height="113" viewBox="0 0 176 113" fill="none" xmlns="http://www.w3.org/2000/svg">
<path d="M9.51174 1.18528C8.57879 0.398178 7.39246 -0.0226697 6.17322 0.00094226C4.94786 -0.0201005 3.75562 0.400128 2.81314 1.18528C1.87336 1.96248 1.40347 3.03668 1.40347 4.40786C1.40347 5.77904 1.87336 6.85992 2.81314 7.65051C3.7609 8.42401 4.95118 8.83643 6.17322 8.81477C7.38918 8.8394 8.57366 8.42633 9.51174 7.65051C10.4669 6.85992 10.944 5.77904 10.943 4.40786C10.9419 3.03668 10.4649 1.96248 9.51174 1.18528Z" fill="white"/>
<path d="M34.8627 12.1808C33.5501 11.3779 31.8554 10.9764 29.7786 10.9764C28.6423 10.9701 27.516 11.1894 26.4648 11.6218C25.4283 12.046 24.5154 12.7252 23.8103 13.5968V11.5987H15.511V33.2163H23.8072V22.0755C23.794 21.4298 23.9284 20.7897 24.2001 20.204C24.4447 19.6708 24.8421 19.2225 25.3417 18.9163C25.8947 18.5943 26.5265 18.4339 27.1658 18.453C28.2863 18.453 29.108 18.7716 29.6307 19.4088C30.1535 20.046 30.4231 20.9329 30.4396 22.0693V33.2101H38.7358V19.4567C38.7433 18.022 38.4162 16.6055 37.7806 15.32C37.1387 14.0077 36.1233 12.9153 34.8627 12.1808Z" fill="white"/>
<path d="M56.7594 26.4192C56.3591 26.5151 55.9492 26.5643 55.5376 26.5659C54.9341 26.579 54.345 26.3801 53.8722 26.0039C53.4101 25.6302 53.1651 24.9863 53.1651 24.0706V18.0841H57.6452V11.5988H53.1713V5.48871H44.8766V11.5988H41.0605V18.0841H44.8766V25.3646C44.8766 28.1502 45.5955 30.2605 47.0334 31.6955C48.4714 33.1305 50.4742 33.8444 53.0418 33.8372C54.1426 33.8455 55.239 33.6984 56.2987 33.4002C57.186 33.164 58.042 32.8224 58.8484 32.3826L57.9364 25.939C57.5653 26.1471 57.17 26.3084 56.7594 26.4192Z" fill="white"/>
<path d="M10.3222 11.5989H2.02596V33.2165H10.3222V11.5989Z" fill="white"/>
<path d="M154.556 14.9249C153.543 13.6632 152.242 12.6653 150.762 12.0158C149.241 11.3219 147.499 10.9755 145.536 10.9766C143.888 10.9575 142.251 11.239 140.704 11.8073C139.299 12.3339 138.01 13.1319 136.911 14.1559C135.841 15.1759 134.994 16.4073 134.423 17.7722C133.829 19.2296 133.533 20.7917 133.553 22.366C133.553 24.6667 134.051 26.6741 135.046 28.388C136.047 30.1014 137.515 31.4939 139.276 32.4027C141.088 33.358 143.203 33.8362 145.622 33.8372C146.807 33.8288 147.987 33.7037 149.147 33.4635C150.34 33.2422 151.512 32.9225 152.652 32.5077C153.744 32.1052 154.608 31.6616 155.245 31.1767L152.84 25.6889C151.785 26.3269 150.647 26.8164 149.458 27.1435C148.26 27.459 147.026 27.6147 145.787 27.6067C144.972 27.6188 144.16 27.4994 143.382 27.2531C142.749 27.0441 142.17 26.6959 141.687 26.234C141.286 25.8325 141.037 25.3034 140.983 24.7377H156.544C156.946 22.7705 156.967 20.9552 156.607 19.2916C156.28 17.693 155.577 16.1957 154.556 14.9249ZM141.513 19.3318C141.583 18.5834 141.963 17.9735 142.653 17.502C143.344 17.0305 144.222 16.7953 145.288 16.7963C146.315 16.7963 147.144 17.0316 147.776 17.502C148.073 17.7043 148.316 17.9773 148.483 18.2965C148.65 18.6158 148.735 18.9715 148.731 19.3318H141.513Z" fill="white"/>
<path d="M174.84 25.9421C174.468 26.1496 174.071 26.3099 173.66 26.4192C173.256 26.5156 172.842 26.5648 172.427 26.5659C171.826 26.577 171.239 26.3783 170.768 26.0039C170.299 25.6302 170.064 24.9858 170.064 24.0706V18.0841H174.543V11.5988H170.064V5.48871H161.768V11.5988H157.952V18.0841H161.768V25.3646C161.768 28.1502 162.487 30.2605 163.925 31.6955C165.363 33.1305 167.365 33.8444 169.933 33.8372C171.033 33.8457 172.129 33.6986 173.188 33.4002C174.076 33.1642 174.933 32.8226 175.74 32.3826L174.84 25.9421Z" fill="white"/>
<path d="M101.653 10.9348C100.499 10.9208 99.357 11.1694 98.3129 11.6621C97.3217 12.1159 96.5059 12.8822 95.9896 13.844V11.5988H87.695V33.2165H95.9896V22.6995C95.9896 21.4518 96.3424 20.5372 97.048 19.9556C97.7536 19.374 98.6457 19.0832 99.7241 19.0832C100.309 19.0835 100.893 19.1461 101.465 19.27C102.033 19.3726 102.589 19.5325 103.124 19.7471L104.058 11.2251C103.699 11.1557 103.331 11.0939 102.959 11.0383C102.528 10.9632 102.091 10.9286 101.653 10.9348Z" fill="white"/>
<path d="M126.324 12.1809C125.011 11.3779 123.316 10.9764 121.24 10.9764C120.103 10.9692 118.975 11.1881 117.922 11.6203C116.886 12.0449 115.973 12.7241 115.267 13.5953V11.5987H106.971V33.2164H115.267V22.0756C115.254 21.4297 115.389 20.7893 115.662 20.2041C115.905 19.67 116.303 19.2214 116.803 18.9163C117.356 18.5942 117.988 18.4337 118.627 18.4531C119.747 18.4531 120.569 18.7717 121.092 19.4089C121.616 20.0461 121.886 20.9329 121.901 22.0694V33.2102H130.196V19.4567C130.204 18.0222 129.878 16.6056 129.242 15.32C128.6 14.0082 127.585 12.916 126.324 12.1809Z" fill="white"/>
<path d="M81.8498 14.9249C80.838 13.6641 79.538 12.6663 78.0599 12.0157C76.5388 11.3219 74.7969 10.9755 72.8342 10.9766C71.1863 10.9575 69.5486 11.239 68.0013 11.8073C66.595 12.3332 65.3057 13.1313 64.2067 14.1559C63.1357 15.1753 62.2879 16.4069 61.7171 17.7722C61.1229 19.2296 60.8269 20.7917 60.8466 22.366C60.8466 24.6667 61.3448 26.6741 62.341 28.388C63.3425 30.101 64.8091 31.4933 66.57 32.4027C68.3818 33.358 70.497 33.8362 72.9158 33.8372C74.1007 33.8288 75.2819 33.7037 76.4423 33.4635C77.6348 33.2418 78.807 32.9221 79.9472 32.5077C81.039 32.1052 81.9027 31.6616 82.5385 31.1767L80.1336 25.6889C79.0783 26.3269 77.9404 26.8164 76.7519 27.1435C75.5544 27.459 74.3205 27.6147 73.0822 27.6067C72.2627 27.6193 71.4464 27.4994 70.665 27.2516C70.0313 27.0429 69.4522 26.6947 68.9703 26.2324C68.5681 25.8315 68.3185 25.3022 68.2647 24.7362H83.8249C84.2275 22.769 84.2486 20.9536 83.8881 19.2901C83.5646 17.6933 82.8658 16.1969 81.8498 14.9249ZM68.8054 19.3318C68.8753 18.5834 69.2553 17.9735 69.9455 17.502C70.6526 17.031 71.5293 16.7963 72.5815 16.7963C73.6024 16.7963 74.4318 17.0316 75.0696 17.502C75.3669 17.7044 75.6096 17.9774 75.776 18.2967C75.9424 18.616 76.0273 18.9716 76.0232 19.3318H68.8054Z" fill="white"/>
<path d="M25.3462 75.0481C24.6985 75.2017 24.0353 75.2805 23.3696 75.2828C22.3992 75.3013 21.4525 74.9809 20.692 74.3764C19.933 73.7721 19.5535 72.7319 19.5535 71.2557V61.5926H26.7851V51.1235H19.5535V41.2582H6.16246V51.1235H0V61.5926H6.16246V73.3372C6.16246 77.8337 7.32306 81.2446 9.64426 83.5701C11.9655 85.8759 15.2007 87.0284 19.3501 87.0273C21.1262 87.0403 22.8952 86.8027 24.6052 86.3217C26.2588 85.8523 27.6315 85.3046 28.7232 84.6787L27.2504 74.276C26.6497 74.6107 26.0102 74.87 25.3462 75.0481Z" fill="#E13040"/>
<path d="M173.751 57.1302C172.969 55.0498 171.608 53.361 169.667 52.064C167.725 50.7669 165.024 50.1179 161.561 50.1168C158.816 50.1168 156.293 50.6537 153.994 51.7273C151.696 52.7784 149.978 54.2998 148.839 56.2918C148.213 54.3451 146.974 52.835 145.121 51.7613C143.293 50.665 141.207 50.1168 138.863 50.1168C136.244 50.1415 133.691 50.9479 131.53 52.433C130.448 53.1622 129.509 54.0832 128.757 55.1507V51.1236H115.366V86.0206H128.757V66.3579C128.753 65.6356 128.949 64.9265 129.325 64.3104C129.743 63.6701 130.32 63.1497 130.999 62.8002C131.794 62.3843 132.681 62.1766 133.578 62.1965C135.14 62.1965 136.345 62.6885 137.192 63.6726C138.039 64.6568 138.463 65.9765 138.464 67.6318V86.0206H151.855V66.3579C151.85 65.6355 152.047 64.9261 152.424 64.3104C152.842 63.67 153.419 63.1497 154.099 62.8002C154.893 62.3843 155.779 62.1766 156.674 62.1965C158.239 62.1965 159.445 62.6885 160.292 63.6726C161.139 64.6568 161.563 65.9765 161.564 67.6318V86.0206H174.954V63.8132C174.972 61.5298 174.564 59.2632 173.751 57.1302Z" fill="#E13040"/>
<path d="M65.8474 56.4925C64.2133 54.4567 62.1137 52.8455 59.7266 51.7953C57.2708 50.6763 54.4587 50.1168 51.2902 50.1168C48.4554 50.1168 45.8554 50.5641 43.49 51.4587C41.2194 52.308 39.1376 53.5966 37.363 55.251C35.6351 56.8976 34.2669 58.8856 33.3451 61.0893C32.4084 63.3262 31.94 65.7968 31.94 68.5011C31.94 72.2142 32.7432 75.4568 34.3496 78.229C35.9679 80.9926 38.3364 83.2385 41.1791 84.7051C44.1032 86.2492 47.5182 87.0213 51.4242 87.0213C53.3365 87.0076 55.2427 86.8049 57.1152 86.416C59.0406 86.0582 60.9333 85.5417 62.7739 84.8718C64.5364 84.2233 65.9312 83.5073 66.9582 82.724L63.0743 73.8654C61.3714 74.8953 59.5353 75.6856 57.6175 76.214C55.6833 76.72 53.6912 76.9686 51.6923 76.9536C50.3754 76.9734 49.064 76.7805 47.8084 76.3823C46.6704 75.9788 45.7552 75.4306 45.063 74.7378C44.4145 74.0903 44.0118 73.2361 43.9245 72.3228H69.0365C69.6836 69.146 69.717 66.2153 69.1367 63.5306C68.5512 60.8294 67.4548 58.4834 65.8474 56.4925ZM44.7918 63.6063C44.9017 62.3988 45.5149 61.4141 46.6313 60.6524C47.7704 59.8927 49.1877 59.5128 50.8834 59.5128C52.535 59.5128 53.8743 59.8927 54.9014 60.6524C55.9284 61.4121 56.442 62.3967 56.442 63.6063H44.7918Z" fill="#E13040"/>
<path d="M98.9862 51.3924C96.3733 50.3177 93.4045 49.7808 90.0799 49.7819C87.3771 49.7937 84.6874 50.157 82.0779 50.8627C79.4256 51.5357 76.8873 52.5988 74.5458 54.0174L77.8258 62.9424C79.2132 61.9235 80.7652 61.1515 82.4138 60.6602C84.1386 60.1299 85.9324 59.8588 87.7366 59.8557C89.5217 59.8557 90.9164 60.1017 91.9209 60.5938C92.9254 61.0632 93.6397 61.723 94.0639 62.5733C94.3166 63.0728 94.4937 63.6073 94.5893 64.1591C91.508 63.9893 88.7349 64.0536 86.2699 64.3521C83.3458 64.7104 80.8906 65.3924 78.9042 66.3981C76.9179 67.3833 75.4112 68.6587 74.3841 70.2244C73.3796 71.7902 72.8773 73.6132 72.8773 75.6937C72.8773 78.0871 73.4356 80.1335 74.552 81.8331C75.6572 83.5032 77.1975 84.8383 79.0059 85.6934C80.9191 86.6027 83.0142 87.0622 85.1314 87.0368C87.5872 87.0368 89.7522 86.6564 91.6266 85.8957C93.5021 85.1133 94.9754 84.017 96.0467 82.6067V86.03H107.427V65.2169C107.427 61.5923 106.669 58.6508 105.152 56.3922C103.668 54.1209 101.512 52.3724 98.9862 51.3924ZM93.9283 75.4513C93.4129 76.1916 92.691 76.7631 91.8531 77.0942C90.9389 77.4649 89.9597 77.6476 88.9737 77.6316C87.7905 77.6316 86.8307 77.4082 86.0943 76.9614C85.3579 76.5147 84.9907 75.8322 84.9928 74.9139C84.9784 74.5286 85.056 74.1454 85.2192 73.7963C85.3824 73.4471 85.6264 73.1421 85.931 72.9066C86.5544 72.3919 87.4023 72.0341 88.4745 71.8334C89.6902 71.6242 90.9271 71.5677 92.1566 71.6651C93.009 71.7081 93.8586 71.7963 94.7017 71.9291V72.5375C94.6997 73.7213 94.4419 74.6926 93.9283 75.4513Z" fill="#E13040"/>
<path d="M6.49831 108.299C5.70039 108.317 4.91338 108.111 4.22696 107.703C3.54054 107.295 2.98233 106.701 2.61595 105.991C2.29066 105.342 2.10164 104.633 2.06057 103.908C2.01949 103.183 2.12725 102.457 2.37716 101.775C2.58429 101.223 2.8949 100.715 3.29228 100.279C3.68772 99.8475 4.16827 99.5031 4.70349 99.2675C5.27469 99.018 5.8922 98.8928 6.51525 98.9C7.27384 98.8786 8.02482 99.0564 8.69368 99.4158C9.29244 99.7557 9.80324 100.232 10.185 100.805L9.85222 101.176V95.0212H11.5053V108.035H9.98164V105.957L10.2251 106.337C9.87242 106.912 9.3888 107.395 8.81385 107.746C8.21917 108.115 7.44733 108.299 6.49831 108.299ZM6.79564 106.8C7.34842 106.81 7.89419 106.674 8.37786 106.406C8.8376 106.146 9.21425 105.76 9.46399 105.294C9.73996 104.772 9.87686 104.187 9.86147 103.596C9.87595 103.005 9.74079 102.421 9.46861 101.897C9.2217 101.433 8.84754 101.049 8.39018 100.79C7.90094 100.534 7.35738 100.401 6.80566 100.401C6.25394 100.401 5.71037 100.534 5.22113 100.79C4.76388 101.049 4.38976 101.433 4.1427 101.897C3.88522 102.426 3.75141 103.007 3.75141 103.596C3.75141 104.184 3.88522 104.765 4.1427 105.294C4.39168 105.761 4.76917 106.147 5.23038 106.406C5.70902 106.672 6.24858 106.807 6.79564 106.8Z" fill="#7F8687"/>
<path d="M17.9128 97.4995C17.6118 97.5043 17.3209 97.3906 17.1025 97.1829C16.9905 97.0821 16.9017 96.9581 16.8424 96.8194C16.7831 96.6807 16.7546 96.5308 16.7589 96.38C16.7542 96.2296 16.7825 96.08 16.8419 95.9417C16.9013 95.8035 16.9902 95.6801 17.1025 95.5801C17.326 95.3793 17.6157 95.2682 17.9159 95.2682C18.2161 95.2682 18.5058 95.3793 18.7294 95.5801C18.8399 95.6811 18.9273 95.8049 18.9856 95.943C19.0438 96.0811 19.0715 96.2302 19.0668 96.38C19.0711 96.5302 19.0433 96.6797 18.9851 96.8182C18.9269 96.9567 18.8397 97.0811 18.7294 97.1829C18.5094 97.3921 18.216 97.5059 17.9128 97.4995ZM17.084 108.029V99.1733H18.7463V108.03L17.084 108.029Z" fill="#7F8687"/>
<path d="M28.144 112.096C27.5655 112.096 26.9886 112.038 26.4216 111.923C25.8495 111.81 25.2948 111.622 24.7716 111.364L25.2137 109.945C25.6755 110.163 26.1595 110.33 26.6573 110.442C27.1278 110.546 27.6083 110.598 28.0901 110.597C29.1551 110.597 29.9681 110.335 30.5288 109.811C31.0896 109.287 31.371 108.597 31.3731 107.74V105.816L31.6073 106.168C31.2815 106.754 30.813 107.247 30.2454 107.601C29.662 107.972 28.9287 108.157 28.0454 108.157C27.2132 108.176 26.3922 107.962 25.6744 107.539C25.0044 107.137 24.4556 106.561 24.086 105.872C23.7045 105.15 23.5106 104.344 23.5221 103.528C23.5171 102.911 23.6268 102.298 23.8456 101.721C24.0551 101.173 24.3691 100.671 24.77 100.243C25.1724 99.817 25.6594 99.4799 26.1997 99.2536C26.7858 99.0119 27.4147 98.8917 28.0485 98.9C28.9317 98.9 29.6651 99.0843 30.2484 99.4528C30.8161 99.8046 31.2848 100.296 31.6104 100.88L31.3762 101.241V99.1625H32.9353V107.332C32.9353 108.827 32.5342 109.994 31.7321 110.834C30.9299 111.674 29.7339 112.095 28.144 112.096ZM28.2441 106.682C28.7933 106.692 29.3355 106.558 29.8171 106.293C30.2728 106.039 30.6469 105.66 30.8955 105.2C31.1509 104.681 31.2837 104.109 31.2837 103.53C31.2837 102.951 31.1509 102.38 30.8955 101.86C30.6479 101.398 30.2737 101.018 29.8171 100.762C29.3306 100.508 28.7899 100.375 28.241 100.375C27.6922 100.375 27.1515 100.508 26.665 100.762C26.21 101.02 25.8364 101.4 25.5865 101.86C25.3282 102.379 25.1937 102.95 25.1937 103.53C25.1937 104.11 25.3282 104.681 25.5865 105.2C25.8374 105.658 26.2109 106.037 26.665 106.293C27.1492 106.56 27.6949 106.694 28.2472 106.682H28.2441Z" fill="#7F8687"/>
<path d="M39.3366 97.4995C39.0356 97.5039 38.7448 97.3903 38.5262 97.1829C38.4142 97.0821 38.3255 96.9581 38.2661 96.8194C38.2068 96.6807 38.1783 96.5308 38.1826 96.38C38.1779 96.2296 38.2063 96.08 38.2656 95.9417C38.325 95.8035 38.414 95.6801 38.5262 95.5801C38.7498 95.3793 39.0394 95.2682 39.3397 95.2682C39.6399 95.2682 39.9296 95.3793 40.1531 95.5801C40.2642 95.6808 40.352 95.8045 40.4106 95.9426C40.4691 96.0807 40.4969 96.23 40.492 96.38C40.4964 96.5304 40.4684 96.6799 40.4099 96.8185C40.3514 96.9571 40.2638 97.0814 40.1531 97.1829C39.9332 97.3921 39.6397 97.5059 39.3366 97.4995ZM38.5077 108.029V99.1733H40.1608V108.03L38.5077 108.029Z" fill="#7F8687"/>
<path d="M44.6286 100.582V99.1735H46.901V100.583L44.6286 100.582ZM49.3891 108.302C48.5674 108.302 47.9049 108.061 47.4017 107.58C46.8984 107.098 46.6478 106.355 46.6499 105.35V96.5732H48.3091V99.1735H50.8973V100.583H48.3091V104.93C48.3091 105.605 48.4308 106.08 48.6742 106.354C48.9176 106.627 49.2735 106.764 49.7434 106.764C49.9453 106.766 50.1466 106.742 50.3427 106.693C50.5165 106.65 50.6845 106.586 50.8434 106.503L51.1854 107.868C50.9198 108.006 50.6383 108.109 50.3473 108.177C50.0347 108.257 49.7133 108.298 49.3906 108.299L49.3891 108.302Z" fill="#7F8687"/>
<path d="M59.833 108.299C59.0033 108.317 58.1851 108.103 57.4697 107.682C56.7931 107.275 56.2389 106.692 55.8659 105.995C55.4739 105.261 55.2751 104.438 55.2882 103.605C55.2828 102.972 55.3957 102.344 55.6209 101.752C55.8336 101.197 56.1523 100.689 56.5592 100.256C56.9657 99.8294 57.4555 99.4914 57.9981 99.263C58.579 99.0196 59.2034 98.8977 59.833 98.9048C60.7214 98.9048 61.4609 99.0916 62.0515 99.4653C62.6213 99.8205 63.0949 100.311 63.4303 100.894L63.1869 101.255V99.1735H64.7013V108.031H63.1869V105.952L63.4303 106.304C63.0947 106.888 62.6212 107.38 62.0515 107.737C61.4619 108.112 60.7224 108.299 59.833 108.299ZM60.0132 106.8C60.5616 106.81 61.1028 106.674 61.5816 106.406C62.039 106.146 62.413 105.76 62.66 105.294C62.9175 104.765 63.0513 104.184 63.0513 103.596C63.0513 103.007 62.9175 102.426 62.66 101.897C62.4123 101.433 62.0384 101.049 61.5816 100.79C61.0979 100.535 60.5593 100.401 60.0125 100.401C59.4656 100.401 58.9271 100.535 58.4433 100.79C57.9876 101.051 57.614 101.434 57.3649 101.897C57.1045 102.425 56.969 103.007 56.969 103.596C56.969 104.185 57.1045 104.766 57.3649 105.294C57.6138 105.759 57.9874 106.144 58.4433 106.406C58.9226 106.674 59.4644 106.81 60.0132 106.8Z" fill="#7F8687"/>
<path d="M70.2736 108.029V95.0152H71.9329V108.029H70.2736Z" fill="#7F8687"/>
<path d="M84.4119 103.673V102.226H89.137V103.673H84.4119Z" fill="#7F8687"/>
<path d="M105.367 108.299C104.538 108.317 103.72 108.103 103.006 107.681C102.329 107.274 101.774 106.692 101.4 105.995C101.008 105.261 100.81 104.438 100.823 103.605C100.818 102.972 100.931 102.343 101.157 101.752C101.368 101.196 101.686 100.687 102.094 100.254C102.499 99.8274 102.989 99.4893 103.531 99.2613C104.112 99.0179 104.736 98.896 105.366 98.9031C106.256 98.9031 106.996 99.0899 107.584 99.4636C108.157 99.8179 108.633 100.309 108.971 100.892L108.728 101.253V99.1733H110.242V108.03H108.718V105.952L108.962 106.304C108.624 106.888 108.148 107.381 107.575 107.737C106.994 108.112 106.258 108.299 105.367 108.299ZM105.548 106.8C106.097 106.81 106.638 106.674 107.118 106.406C107.575 106.145 107.948 105.759 108.196 105.294C108.454 104.765 108.589 104.184 108.589 103.596C108.589 103.007 108.454 102.426 108.196 101.897C107.948 101.433 107.574 101.049 107.118 100.79C106.634 100.534 106.095 100.401 105.548 100.401C105.002 100.401 104.463 100.534 103.979 100.79C103.523 101.05 103.149 101.434 102.901 101.897C102.639 102.425 102.503 103.006 102.503 103.596C102.503 104.185 102.639 104.766 102.901 105.294C103.149 105.759 103.523 106.144 103.979 106.406C104.458 106.674 104.999 106.81 105.548 106.8Z" fill="#7F8687"/>
<path d="M119.641 112.096C119.063 112.096 118.486 112.038 117.919 111.923C117.347 111.813 116.791 111.627 116.267 111.372L116.709 109.953C117.171 110.17 117.655 110.337 118.153 110.45C118.624 110.554 119.104 110.605 119.586 110.604C120.651 110.604 121.464 110.342 122.025 109.818C122.585 109.295 122.867 108.604 122.869 107.748V105.824L123.103 106.176C122.777 106.761 122.309 107.254 121.741 107.609C121.159 107.979 120.425 108.165 119.541 108.165C118.709 108.183 117.888 107.969 117.17 107.547C116.5 107.145 115.952 106.569 115.583 105.879C115.199 105.157 115.003 104.348 115.015 103.529C115.01 102.912 115.12 102.299 115.34 101.723C115.549 101.174 115.863 100.672 116.264 100.245C116.667 99.8186 117.154 99.4815 117.694 99.2552C118.28 99.0135 118.909 98.8932 119.543 98.9016C120.427 98.9016 121.16 99.0858 121.743 99.4544C122.31 99.8061 122.779 100.297 123.105 100.881L122.87 101.242V99.1641H124.433V107.334C124.433 108.829 124.031 109.996 123.229 110.836C122.427 111.676 121.231 112.096 119.641 112.096ZM119.741 106.682C120.291 106.692 120.833 106.558 121.314 106.293C121.77 106.039 122.145 105.66 122.393 105.2C122.648 104.681 122.781 104.109 122.781 103.53C122.781 102.951 122.648 102.38 122.393 101.86C122.146 101.398 121.771 101.017 121.314 100.762C120.828 100.508 120.287 100.375 119.738 100.375C119.189 100.375 118.649 100.508 118.162 100.762C117.707 101.02 117.334 101.4 117.084 101.86C116.825 102.379 116.691 102.95 116.691 103.53C116.691 104.11 116.825 104.681 117.084 105.2C117.335 105.658 117.708 106.037 118.162 106.293C118.646 106.559 119.19 106.693 119.741 106.682Z" fill="#7F8687"/>
<path d="M133.984 108.299C133.122 108.318 132.269 108.116 131.506 107.712C130.804 107.334 130.222 106.766 129.828 106.073C129.413 105.323 129.205 104.476 129.224 103.619C129.218 102.976 129.336 102.337 129.57 101.738C129.789 101.18 130.118 100.672 130.538 100.245C130.958 99.8179 131.46 99.4807 132.014 99.2537C132.596 99.0147 133.22 98.8944 133.849 98.9001C134.507 98.8884 135.161 99.0179 135.765 99.28C136.308 99.5184 136.787 99.8825 137.163 100.342C137.54 100.812 137.812 101.358 137.961 101.942C138.126 102.593 138.16 103.271 138.061 103.935H130.865C130.835 104.474 130.96 105.01 131.225 105.48C131.489 105.928 131.88 106.288 132.348 106.514C132.892 106.773 133.49 106.9 134.092 106.885C134.583 106.886 135.07 106.806 135.536 106.65C135.991 106.501 136.414 106.265 136.781 105.955L137.483 107.191C137.172 107.439 136.828 107.642 136.46 107.793C136.063 107.959 135.65 108.085 135.228 108.168C134.818 108.252 134.402 108.296 133.984 108.299ZM130.955 102.643H136.402C136.377 101.896 136.145 101.313 135.707 100.894C135.268 100.475 134.64 100.265 133.823 100.265C133.029 100.265 132.373 100.475 131.857 100.894C131.595 101.108 131.38 101.374 131.224 101.675C131.068 101.976 130.974 102.305 130.949 102.643H130.955Z" fill="#7F8687"/>
<path d="M142.897 108.029V99.1735H144.554V100.367C144.891 99.8836 145.349 99.4971 145.881 99.246C146.367 99.0211 146.897 98.9036 147.432 98.9017C148.23 98.9017 148.894 99.0561 149.42 99.3866C149.92 99.6815 150.328 100.109 150.601 100.622C150.857 101.096 150.992 101.627 150.993 102.166V108.034H149.333V102.674C149.347 102.377 149.299 102.08 149.193 101.803C149.087 101.525 148.925 101.272 148.717 101.06C148.301 100.654 147.737 100.443 147.023 100.443C146.584 100.435 146.151 100.541 145.765 100.752C145.397 100.959 145.093 101.264 144.886 101.633C144.664 102.034 144.552 102.486 144.561 102.944V108.023L142.897 108.029Z" fill="#7F8687"/>
<path d="M160.483 108.299C159.616 108.315 158.761 108.102 158.003 107.682C157.297 107.287 156.711 106.708 156.308 106.006C155.953 105.354 155.746 104.632 155.703 103.89C155.66 103.149 155.782 102.407 156.06 101.718C156.297 101.154 156.648 100.646 157.092 100.227C157.544 99.8002 158.076 99.4671 158.656 99.246C159.798 98.8269 161.045 98.7842 162.213 99.124C162.701 99.2749 163.159 99.5106 163.566 99.8204L162.718 101.104C162.442 100.864 162.119 100.684 161.771 100.574C160.825 100.284 159.805 100.355 158.908 100.773C158.435 101.012 158.044 101.389 157.787 101.854C157.509 102.383 157.372 102.974 157.389 103.571C157.389 104.578 157.68 105.366 158.26 105.935C158.84 106.504 159.626 106.789 160.617 106.789C161.056 106.792 161.491 106.708 161.897 106.54C162.264 106.396 162.596 106.175 162.872 105.893L163.729 107.16C163.264 107.51 162.75 107.788 162.204 107.986C161.653 108.191 161.071 108.297 160.483 108.299Z" fill="#7F8687"/>
<path d="M168.91 112.087C168.621 112.086 168.334 112.051 168.054 111.982C167.751 111.905 167.462 111.782 167.197 111.616L167.585 110.18C167.771 110.298 167.973 110.388 168.186 110.445C168.373 110.501 168.567 110.532 168.762 110.536C169.136 110.56 169.505 110.444 169.799 110.211C170.081 109.937 170.286 109.594 170.395 109.216L170.747 108.205L167.251 99.1733H169.072L171.691 106.313L174.242 99.1733H176L172.132 109.44C171.93 110.025 171.633 110.573 171.253 111.061C170.973 111.414 170.609 111.689 170.193 111.861C169.784 112.017 169.348 112.093 168.91 112.087Z" fill="#7F8687"/>
</svg>
