<svg width="146" height="146" viewBox="0 0 146 146" fill="none" xmlns="http://www.w3.org/2000/svg">
<path d="M134.384 75.1779C134.419 74.5159 134.541 73.9149 134.748 73.375C134.955 72.835 135.234 72.3727 135.585 71.9881L136.544 72.6584C136.242 72.9502 135.999 73.3146 135.815 73.7516C135.631 74.1886 135.525 74.6581 135.498 75.16C135.472 75.6274 135.518 76.0356 135.633 76.3846C135.753 76.734 135.932 77.0083 136.168 77.2077C136.405 77.4071 136.69 77.518 137.022 77.5403C137.55 77.5689 137.96 77.4196 138.251 77.0925C138.542 76.7698 138.707 76.2471 138.746 75.5245L138.841 73.7655L139.86 73.8206L139.77 75.4822C139.749 75.8716 139.791 76.2124 139.897 76.5045C140.003 76.801 140.164 77.0332 140.38 77.2011C140.601 77.3736 140.869 77.4684 141.185 77.4855C141.492 77.5021 141.756 77.4383 141.976 77.294C142.201 77.1499 142.376 76.9315 142.5 76.6388C142.629 76.3506 142.704 75.9989 142.726 75.5835C142.75 75.1421 142.704 74.7208 142.586 74.3196C142.469 73.9183 142.289 73.5636 142.045 73.2553L142.98 72.7005C143.293 73.0906 143.524 73.5501 143.674 74.0789C143.827 74.608 143.888 75.1711 143.856 75.7682C143.821 76.4 143.695 76.9399 143.475 77.388C143.26 77.8407 142.964 78.1806 142.587 78.4075C142.214 78.6391 141.779 78.7414 141.281 78.7145C140.987 78.6986 140.705 78.6118 140.436 78.454C140.167 78.2962 139.935 78.0992 139.739 77.863C139.543 77.6311 139.404 77.3936 139.322 77.1504C139.143 77.6485 138.845 78.0555 138.429 78.3715C138.013 78.6875 137.5 78.8268 136.89 78.7895C136.397 78.7585 135.955 78.587 135.564 78.2751C135.173 77.9632 134.868 77.541 134.649 77.0084C134.435 76.4804 134.346 75.8702 134.384 75.1779Z" fill="white"/>
<path d="M133.637 82.5061C133.748 81.8568 133.999 81.304 134.389 80.8475C134.779 80.3911 135.251 80.0607 135.805 79.8565C136.359 79.6522 136.939 79.6019 137.545 79.7056C137.994 79.7823 138.405 79.9383 138.778 80.1735C139.151 80.4087 139.465 80.7043 139.721 81.0601C139.981 81.4167 140.163 81.815 140.268 82.255C140.373 82.695 140.384 83.1584 140.301 83.6454C140.189 84.2989 139.938 84.8539 139.548 85.3103C139.158 85.7667 138.686 86.0971 138.132 86.3014C137.578 86.5056 136.998 86.5559 136.392 86.4522C135.943 86.3755 135.532 86.2196 135.159 85.9843C134.786 85.7491 134.472 85.4536 134.216 85.0977C133.961 84.7419 133.778 84.3436 133.669 83.9029C133.564 83.4629 133.553 82.9973 133.637 82.5061ZM134.701 82.6879C134.629 83.1108 134.657 83.5002 134.785 83.8562C134.916 84.2173 135.135 84.5206 135.44 84.7662C135.75 85.0126 136.135 85.1752 136.597 85.2541C137.062 85.3337 137.48 85.3084 137.849 85.1781C138.222 85.0529 138.529 84.8415 138.769 84.544C139.009 84.2466 139.165 83.8864 139.237 83.4635C139.309 83.0407 139.282 82.6491 139.154 82.2888C139.026 81.9327 138.807 81.6316 138.498 81.3852C138.192 81.1438 137.806 80.9833 137.34 80.9037C136.879 80.8249 136.462 80.848 136.089 80.9733C135.719 81.1035 135.412 81.317 135.168 81.6138C134.928 81.9113 134.773 82.2693 134.701 82.6879Z" fill="white"/>
<path d="M133.109 86.2918L134.287 86.1748C134.27 86.6348 134.352 86.9971 134.532 87.2618C134.716 87.5276 135.019 87.7513 135.44 87.9327C135.861 88.114 136.421 88.3066 137.12 88.5103L139.036 89.0686L137.63 93.8924L131.514 92.1101L131.849 90.9619L136.991 92.4605L137.746 89.8707L136.804 89.5961C136.138 89.4021 135.568 89.2045 135.094 89.0031C134.623 88.8072 134.241 88.5852 133.948 88.3373C133.653 88.0934 133.437 87.8048 133.3 87.4713C133.165 87.1432 133.101 86.7501 133.109 86.2918Z" fill="white"/>
<path d="M129.876 95.8333C130.131 95.2257 130.499 94.7434 130.982 94.3865C131.465 94.0297 131.999 93.814 132.585 93.7396C133.17 93.6652 133.747 93.7468 134.314 93.9844C134.734 94.1601 135.099 94.4045 135.41 94.7177C135.72 95.0309 135.96 95.3896 136.129 95.7939C136.302 96.1998 136.39 96.629 136.393 97.0813C136.397 97.5336 136.303 97.9877 136.112 98.4434C135.856 99.0549 135.487 99.5392 135.004 99.8961C134.521 100.253 133.987 100.469 133.401 100.543C132.816 100.617 132.239 100.536 131.672 100.298C131.252 100.122 130.887 99.8781 130.576 99.5649C130.266 99.2517 130.026 98.893 129.857 98.4887C129.688 98.0845 129.6 97.6553 129.593 97.2013C129.589 96.749 129.684 96.2929 129.876 95.8333ZM130.872 96.2499C130.706 96.6456 130.646 97.0313 130.69 97.4071C130.737 97.7885 130.882 98.1332 131.124 98.4413C131.37 98.751 131.709 98.9962 132.141 99.1769C132.577 99.3593 132.989 99.4286 133.379 99.3849C133.77 99.3469 134.117 99.21 134.417 98.9741C134.718 98.7383 134.951 98.4225 135.117 98.0267C135.282 97.631 135.344 97.2433 135.301 96.8635C135.256 96.4878 135.111 96.1451 134.864 95.8353C134.621 95.5313 134.281 95.288 133.845 95.1057C133.413 94.925 133.002 94.8536 132.61 94.8917C132.221 94.9354 131.873 95.0743 131.569 95.3085C131.268 95.5443 131.036 95.8581 130.872 96.2499Z" fill="white"/>
<path d="M127.051 102.189L131.741 104.776L132.796 102.863L133.684 103.353L130.993 108.231L130.105 107.741L131.163 105.823L126.473 103.236L127.051 102.189Z" fill="white"/>
<path d="M123.733 107.209C124.109 106.668 124.57 106.274 125.117 106.026C125.664 105.778 126.232 105.678 126.82 105.728C127.408 105.778 127.954 105.978 128.46 106.329C128.834 106.588 129.14 106.904 129.378 107.275C129.616 107.646 129.775 108.047 129.856 108.478C129.941 108.911 129.937 109.349 129.846 109.792C129.754 110.235 129.568 110.659 129.286 111.065C128.908 111.61 128.445 112.006 127.899 112.254C127.352 112.502 126.784 112.601 126.196 112.552C125.608 112.502 125.061 112.302 124.556 111.951C124.182 111.691 123.876 111.376 123.638 111.005C123.4 110.634 123.24 110.233 123.16 109.802C123.079 109.371 123.082 108.933 123.17 108.488C123.261 108.045 123.449 107.619 123.733 107.209ZM124.62 107.825C124.375 108.177 124.235 108.542 124.201 108.918C124.167 109.301 124.236 109.669 124.409 110.021C124.585 110.375 124.865 110.686 125.249 110.952C125.637 111.222 126.026 111.376 126.416 111.415C126.807 111.459 127.174 111.398 127.518 111.23C127.861 111.062 128.155 110.802 128.4 110.45C128.644 110.097 128.785 109.731 128.823 109.351C128.857 108.974 128.787 108.608 128.611 108.254C128.436 107.906 128.155 107.597 127.767 107.327C127.382 107.06 126.994 106.905 126.603 106.86C126.213 106.821 125.845 106.885 125.498 107.05C125.155 107.218 124.862 107.476 124.62 107.825Z" fill="white"/>
<path d="M121.508 110.721L126.282 114.939L125.512 115.811L122.082 112.781L123.058 118.587L122.378 119.357L117.605 115.139L118.375 114.268L121.843 117.332L120.85 111.467L121.508 110.721ZM125.209 117.92C125.516 117.573 125.861 117.333 126.242 117.202C126.624 117.071 127.006 117.048 127.389 117.131C127.775 117.218 128.131 117.414 128.457 117.719L127.781 118.484C127.475 118.19 127.145 118.043 126.792 118.043C126.442 118.047 126.134 118.199 125.867 118.501C125.6 118.803 125.488 119.126 125.531 119.471C125.574 119.821 125.762 120.129 126.094 120.394L125.414 121.163C125.077 120.877 124.844 120.546 124.713 120.17C124.579 119.798 124.554 119.414 124.637 119.019C124.72 118.624 124.911 118.258 125.209 117.92Z" fill="white"/>
<path d="M114.69 118.047L118.731 122.971L114.219 126.674L110.178 121.75L111.102 120.991L114.5 125.131L117.163 122.946L113.765 118.805L114.69 118.047Z" fill="white"/>
<path d="M107.303 123.502C107.679 123.254 108.052 123.108 108.422 123.062C108.791 123.016 109.134 123.069 109.45 123.219C109.769 123.372 110.041 123.621 110.267 123.965C110.453 124.247 110.549 124.552 110.557 124.879C110.567 125.21 110.466 125.553 110.254 125.91C110.045 126.271 109.709 126.639 109.246 127.016C108.786 127.396 108.181 127.781 107.43 128.17L106.921 127.455C107.512 127.17 107.992 126.894 108.36 126.626C108.731 126.362 109.005 126.109 109.184 125.867C109.364 125.629 109.464 125.403 109.484 125.188C109.502 124.979 109.454 124.787 109.34 124.613C109.157 124.334 108.913 124.181 108.609 124.152C108.304 124.13 107.976 124.234 107.625 124.465C107.324 124.662 107.092 124.893 106.928 125.156C106.762 125.425 106.675 125.703 106.666 125.989C106.656 126.281 106.736 126.557 106.908 126.818L107.886 128.307C108.05 128.556 108.249 128.737 108.482 128.848C108.712 128.961 108.967 128.998 109.248 128.959C109.528 128.92 109.824 128.798 110.135 128.594C110.414 128.411 110.664 128.187 110.884 127.923C111.105 127.659 111.28 127.349 111.41 126.994L112.221 127.566C112.039 128.007 111.802 128.388 111.51 128.709C111.218 129.031 110.911 129.297 110.589 129.509C110.1 129.83 109.632 130.026 109.186 130.096C108.742 130.17 108.328 130.113 107.945 129.924C107.562 129.735 107.219 129.411 106.917 128.951L104.639 125.485L105.558 124.882L105.986 125.534C105.997 125.148 106.119 124.777 106.352 124.422C106.588 124.07 106.904 123.763 107.303 123.502Z" fill="white"/>
<path d="M101.845 123.948L105.943 132.073L104.962 132.568L104.531 131.715C104.448 132.136 104.276 132.531 104.015 132.9C103.753 133.275 103.349 133.6 102.804 133.875C102.239 134.16 101.674 134.277 101.11 134.227C100.548 134.18 100.032 133.989 99.5615 133.654C99.0875 133.32 98.7071 132.869 98.4203 132.3C98.2115 131.886 98.084 131.46 98.0379 131.022C97.9899 130.59 98.0234 130.171 98.1382 129.763C98.255 129.36 98.4495 128.99 98.7216 128.654C98.9918 128.323 99.3416 128.05 99.771 127.833C100.251 127.591 100.715 127.469 101.165 127.465C101.613 127.467 102.031 127.555 102.419 127.728L100.783 124.484L101.845 123.948ZM100.437 128.706C100.054 128.899 99.7572 129.153 99.5471 129.468C99.335 129.788 99.2228 130.143 99.2106 130.533C99.1965 130.928 99.2948 131.335 99.5055 131.753C99.7182 132.174 99.9868 132.495 100.311 132.715C100.634 132.941 100.986 133.061 101.368 133.078C101.746 133.096 102.126 133.008 102.509 132.815C102.892 132.622 103.191 132.367 103.405 132.05C103.615 131.736 103.727 131.381 103.741 130.985C103.757 130.594 103.659 130.187 103.446 129.765C103.236 129.347 102.967 129.027 102.641 128.803C102.316 128.583 101.964 128.462 101.584 128.44C101.202 128.424 100.82 128.513 100.437 128.706Z" fill="white"/>
<path d="M94.4027 130.318L96.2088 135.36L98.2649 134.624L98.6068 135.578L93.3625 137.457L93.0206 136.502L95.0828 135.764L93.2768 130.721L94.4027 130.318Z" fill="white"/>
<path d="M90.4557 131.714L91.9107 137.916L90.7463 138.189L90.1732 135.746L86.8129 136.534L87.386 138.977L86.2216 139.25L84.7667 133.049L85.9311 132.775L86.5813 135.547L89.9416 134.759L89.2914 131.987L90.4557 131.714Z" fill="white"/>
<path d="M80.4792 133.464C81.15 133.381 81.7587 133.448 82.3051 133.664C82.8515 133.88 83.2996 134.219 83.6496 134.683C84.0001 135.15 84.2166 135.717 84.2993 136.384C84.359 136.865 84.3327 137.323 84.2204 137.756C84.1039 138.189 83.9159 138.575 83.6565 138.913C83.3928 139.251 83.0713 139.529 82.6922 139.746C82.3087 139.964 81.8805 140.102 81.4074 140.161C80.8957 140.224 80.4286 140.191 80.0063 140.06C79.5797 139.929 79.215 139.717 78.9121 139.422C78.6055 139.133 78.367 138.776 78.1965 138.352C78.0266 137.932 77.9443 137.462 77.9497 136.941L83.0973 136.303C83.0579 135.88 82.9261 135.521 82.7017 135.226C82.4779 134.935 82.1809 134.723 81.8107 134.59C81.4362 134.457 81.0081 134.421 80.5265 134.48C80.1739 134.524 79.8367 134.623 79.5152 134.776C79.1936 134.929 78.9174 135.132 78.6865 135.383L78.0739 134.562C78.2595 134.368 78.4868 134.194 78.7557 134.038C79.0208 133.887 79.3023 133.763 79.6002 133.665C79.898 133.567 80.191 133.5 80.4792 133.464ZM83.1471 137.234L79.2509 137.717C79.3342 138.248 79.5512 138.642 79.9019 138.9C80.2532 139.162 80.7212 139.257 81.3061 139.185C81.8737 139.114 82.3238 138.906 82.6563 138.559C82.9894 138.216 83.153 137.775 83.1471 137.234Z" fill="white"/>
<path d="M76.3364 131.332L76.4418 140.431L75.3434 140.444L75.3323 139.488C75.0719 139.829 74.7436 140.108 74.3474 140.325C73.947 140.547 73.4412 140.661 72.8303 140.668C72.1977 140.675 71.6391 140.532 71.1547 140.239C70.6703 139.95 70.2908 139.551 70.0163 139.043C69.7374 138.535 69.5942 137.962 69.5869 137.325C69.5815 136.862 69.6544 136.423 69.8056 136.01C69.9526 135.601 70.1672 135.238 70.4496 134.923C70.732 134.612 71.0694 134.366 71.4616 134.183C71.8496 134.006 72.284 133.914 72.765 133.908C73.3023 133.902 73.7736 133.996 74.1789 134.191C74.5799 134.39 74.9166 134.653 75.1891 134.979L75.147 131.346L76.3364 131.332ZM72.979 134.985C72.55 134.99 72.172 135.087 71.8448 135.278C71.5134 135.472 71.2565 135.742 71.0741 136.086C70.8875 136.435 70.7969 136.843 70.8023 137.311C70.8077 137.784 70.9078 138.19 71.1024 138.53C71.2927 138.874 71.5558 139.138 71.8916 139.32C72.2231 139.503 72.6033 139.592 73.0323 139.587C73.4612 139.582 73.8415 139.484 74.173 139.294C74.5001 139.104 74.757 138.834 74.9437 138.485C75.1303 138.141 75.221 137.732 75.2155 137.26C75.2101 136.792 75.11 136.386 74.9154 136.042C74.7207 135.701 74.4577 135.438 74.1261 135.251C73.7903 135.069 73.408 134.98 72.979 134.985Z" fill="white"/>
<path d="M64.3999 133.481L63.2567 141.236L65.8137 140.694L65.9914 141.672L62.0027 142.523L61.9126 142.51L63.2681 133.314L64.3999 133.481Z" fill="white"/>
<path d="M56.935 131.741C57.8436 131.983 58.5888 132.384 59.1706 132.943C59.7472 133.505 60.1322 134.18 60.3257 134.967C60.514 135.757 60.4852 136.613 60.2393 137.534C60.0616 138.2 59.7875 138.781 59.417 139.279C59.0453 139.781 58.6017 140.182 58.086 140.484C57.5704 140.786 57.0061 140.977 56.3931 141.055C55.7759 141.133 55.1387 141.084 54.4813 140.908C53.8324 140.735 53.2869 140.502 52.8448 140.209C52.4016 139.92 52.0438 139.58 51.7715 139.189L52.6577 138.39C52.8742 138.721 53.1541 139 53.4974 139.226C53.8406 139.452 54.2405 139.626 54.6968 139.748C55.2118 139.885 55.6998 139.93 56.161 139.883C56.6221 139.836 57.0416 139.701 57.4193 139.479C57.7917 139.26 58.1139 138.96 58.3859 138.58C58.6578 138.199 58.8642 137.745 59.005 137.218C59.1995 136.489 59.2252 135.83 59.0821 135.24C58.9349 134.649 58.638 134.149 58.1915 133.738C57.7439 133.331 57.1663 133.034 56.4587 132.845C56.0024 132.723 55.547 132.673 55.0925 132.695C54.6328 132.721 54.1773 132.839 53.7262 133.051L53.4418 131.898C53.9635 131.674 54.5153 131.548 55.097 131.519C55.6734 131.494 56.2861 131.568 56.935 131.741Z" fill="white"/>
<path d="M51.4774 133.534L51.1048 134.505L47.9249 133.284L48.2976 132.313L51.4774 133.534Z" fill="white"/>
<path d="M47.6346 128.642L43.5067 136.752L38.5481 134.228L39.0434 133.255L42.913 135.225L44.1484 132.797L42.5902 132.004C41.7328 131.568 41.1457 131.016 40.8288 130.349C40.506 129.684 40.5402 128.967 40.9314 128.199C41.1889 127.693 41.521 127.322 41.9277 127.087C42.3286 126.853 42.7906 126.753 43.3136 126.786C43.8308 126.82 44.3926 126.992 44.9989 127.301L47.6346 128.642ZM46.0915 128.98L44.5622 128.202C43.9945 127.913 43.4952 127.814 43.0643 127.906C42.6334 127.998 42.2981 128.279 42.0583 128.751C41.8283 129.202 41.8 129.64 41.9733 130.064C42.1408 130.489 42.4929 130.839 43.0297 131.112L44.5996 131.911L46.0915 128.98Z" fill="white"/>
<path d="M41.0659 125.197L37.4517 130.442L36.4936 129.782L39.0899 126.014L33.4427 127.68L32.597 127.097L36.2111 121.852L37.1692 122.512L34.5435 126.323L40.2469 124.632L41.0659 125.197Z" fill="white"/>
<path d="M33.1577 119.338L29.6703 123.403L31.3279 124.825L30.6676 125.595L26.4398 121.968L27.1 121.198L28.7626 122.624L32.25 118.559L33.1577 119.338Z" fill="white"/>
<path d="M31.8434 114.534L25.1344 120.682L24.3922 119.872L25.0967 119.226C24.6689 119.26 24.2421 119.201 23.8162 119.051C23.3842 118.9 22.9618 118.6 22.549 118.149C22.1215 117.683 21.8556 117.171 21.751 116.615C21.6433 116.061 21.6872 115.512 21.8826 114.969C22.0752 114.422 22.4063 113.933 22.8759 113.503C23.2178 113.19 23.5931 112.952 24.002 112.788C24.4048 112.625 24.8178 112.543 25.2411 112.543C25.6611 112.546 26.0698 112.633 26.4672 112.804C26.8585 112.974 27.2167 113.237 27.5416 113.592C27.9047 113.988 28.1488 114.402 28.2741 114.833C28.3933 115.265 28.4223 115.691 28.361 116.112L31.0398 113.657L31.8434 114.534ZM26.8823 114.469C26.5924 114.153 26.2676 113.936 25.9077 113.819C25.5417 113.702 25.1695 113.691 24.7913 113.784C24.4069 113.878 24.0422 114.083 23.6971 114.399C23.3489 114.718 23.113 115.064 22.9894 115.436C22.8597 115.807 22.8389 116.179 22.927 116.551C23.0121 116.92 23.1996 117.262 23.4894 117.578C23.7792 117.895 24.1056 118.113 24.4684 118.233C24.8282 118.35 25.2004 118.361 25.5848 118.268C25.966 118.177 26.3307 117.972 26.6789 117.653C27.024 117.337 27.2599 116.991 27.3866 116.617C27.5102 116.245 27.531 115.873 27.4491 115.501C27.361 115.129 27.1721 114.785 26.8823 114.469Z" fill="white"/>
<path d="M24.6767 110.634L19.4578 114.287L18.7907 113.334L22.5398 110.71L16.6663 110.298L16.0775 109.457L21.2964 105.804L21.9635 106.758L18.1718 109.411L24.1065 109.82L24.6767 110.634Z" fill="white"/>
<path d="M18.4428 100.826L16.5184 104.359L12.984 104.116L12.3582 102.992L15.8383 103.257L17.7412 99.565L18.4428 100.826ZM20.5193 104.558L14.9531 107.655L14.3715 106.61L16.5639 105.39L15.6379 103.726L16.5239 103.233L17.45 104.897L19.9378 103.513L20.5193 104.558Z" fill="white"/>
<path d="M16.3693 95.8365C16.6355 96.4531 16.7365 97.0585 16.6721 97.6527C16.6077 98.2469 16.4012 98.7798 16.0525 99.2513C15.6999 99.7245 15.2272 100.089 14.6344 100.345C14.1849 100.539 13.7368 100.638 13.2901 100.642C12.8418 100.642 12.4148 100.555 12.0092 100.381C11.6036 100.207 11.2401 99.9557 10.9189 99.6272C10.592 99.2963 10.3272 98.8962 10.1245 98.4267C9.95955 98.0448 9.85725 97.6713 9.81757 97.3061C9.77788 96.9409 9.80221 96.5764 9.89055 96.2126L10.9801 96.4076C10.9023 96.6536 10.8771 96.9123 10.9046 97.1836C10.9281 97.4567 10.9974 97.7265 11.1125 97.993C11.3014 98.4306 11.549 98.7745 11.8553 99.0246C12.1558 99.2724 12.501 99.416 12.8909 99.4554C13.2807 99.4947 13.6965 99.419 14.1381 99.2284C14.8024 98.9415 15.2411 98.5255 15.4542 97.9804C15.6615 97.433 15.6235 96.8311 15.34 96.1747C15.2095 95.8723 15.0338 95.6131 14.813 95.3969C14.5882 95.1824 14.3523 95.0294 14.1051 94.9379L14.6957 94.0103C15.0587 94.217 15.3869 94.4741 15.6802 94.7817C15.9695 95.091 16.1992 95.4426 16.3693 95.8365Z" fill="white"/>
<path d="M11.8443 70.7414C11.8162 71.4038 11.7017 72.0062 11.5008 72.5485C11.3 73.0908 11.0265 73.5562 10.6803 73.9449L9.71294 73.2858C10.0117 72.9905 10.2507 72.6233 10.4298 72.1842C10.609 71.7451 10.7092 71.2744 10.7305 70.7722C10.7504 70.3046 10.7005 69.897 10.5808 69.5492C10.4568 69.2013 10.2753 68.929 10.0365 68.7324C9.7976 68.5357 9.51157 68.4282 9.17839 68.4097C8.6502 68.3872 8.24247 68.5412 7.95518 68.8717C7.66809 69.1978 7.50918 69.7224 7.47847 70.4454L7.40372 72.2053L6.38414 72.162L6.45475 70.4995C6.4713 70.1098 6.42503 69.7696 6.31595 69.4787C6.20705 69.1834 6.04334 68.9531 5.82483 68.7877C5.60217 68.6178 5.33282 68.5261 5.01677 68.5127C4.70938 68.4996 4.44631 68.5665 4.22755 68.7134C4.00445 68.86 3.83244 69.0804 3.71152 69.3745C3.58645 69.6642 3.51509 70.0168 3.49743 70.4324C3.47868 70.874 3.5302 71.2948 3.65201 71.6946C3.77381 72.0945 3.95835 72.4471 4.20561 72.7526L3.27727 73.3182C2.95972 72.9317 2.72322 72.4749 2.56779 71.9478C2.40802 71.4206 2.34082 70.8582 2.3662 70.2608C2.39305 69.6287 2.51363 69.0873 2.72795 68.6366C2.93812 68.1815 3.23028 67.8382 3.60444 67.6069C3.97445 67.3711 4.40839 67.2637 4.90628 67.2849C5.20068 67.2974 5.48339 67.3809 5.7544 67.5356C6.02542 67.6902 6.26005 67.8845 6.4583 68.1185C6.65673 68.3481 6.79852 68.584 6.88365 68.8262C7.0567 68.3261 7.34955 67.9156 7.7622 67.5948C8.17485 67.2741 8.68631 67.1288 9.29657 67.1591C9.78994 67.1844 10.234 67.3507 10.6286 67.658C11.0232 67.9654 11.3329 68.3841 11.5576 68.9141C11.7782 69.4396 11.8738 70.0487 11.8443 70.7414Z" fill="white"/>
<path d="M12.4685 63.6429C12.3674 64.2938 12.1253 64.8504 11.7422 65.3127C11.3591 65.7751 10.8922 66.1126 10.3418 66.3254C9.79128 66.5381 9.21201 66.5973 8.60396 66.5029C8.15434 66.4331 7.74125 66.2834 7.36466 66.0539C6.98808 65.8245 6.66923 65.5338 6.40812 65.1819C6.14273 64.8293 5.95417 64.4339 5.84242 63.9955C5.73068 63.5572 5.7127 63.094 5.78849 62.6058C5.8902 61.9507 6.13262 61.3919 6.51576 60.9295C6.89889 60.4672 7.3657 60.1296 7.91619 59.9169C8.46667 59.7042 9.04594 59.645 9.65399 59.7394C10.1036 59.8092 10.5167 59.9589 10.8933 60.1883C11.2699 60.4178 11.5887 60.7085 11.8498 61.0604C12.1109 61.4123 12.2995 61.8077 12.4155 62.2467C12.5273 62.6851 12.5449 63.1505 12.4685 63.6429ZM11.4022 63.4774C11.4681 63.0534 11.4342 62.6645 11.3006 62.3104C11.1633 61.9515 10.9402 61.6515 10.6312 61.4106C10.3179 61.169 9.92998 61.0123 9.46752 60.9405C9.00077 60.8681 8.58364 60.8998 8.21611 61.0357C7.84496 61.1666 7.54172 61.3826 7.30641 61.6838C7.07109 61.9849 6.92053 62.3474 6.85471 62.7714C6.7889 63.1953 6.82246 63.5864 6.9554 63.9447C7.089 64.2987 7.31246 64.5965 7.62578 64.8381C7.93547 65.0748 8.32369 65.2293 8.79043 65.3018C9.25289 65.3736 9.6697 65.344 10.0408 65.213C10.4084 65.0772 10.7119 64.859 10.9515 64.5585C11.1869 64.2574 11.3371 63.897 11.4022 63.4774Z" fill="white"/>
<path d="M12.9301 59.8623L11.7537 59.9972C11.7634 59.5369 11.6762 59.1759 11.4921 58.914C11.3038 58.651 10.9977 58.432 10.574 58.257C10.1502 58.082 9.58737 57.8979 8.88544 57.7049L6.9614 57.1756L8.29399 52.3311L14.4359 54.0205L14.1187 55.1737L8.95447 53.7532L8.23905 56.3541L9.1854 56.6144C9.8539 56.7982 10.4266 56.9872 10.9036 57.1814C11.3775 57.3701 11.7629 57.5863 12.06 57.8298C12.3582 58.0691 12.5786 58.3544 12.7211 58.6858C12.8607 59.0118 12.9303 59.404 12.9301 59.8623Z" fill="white"/>
<path d="M16.0909 50.0678C15.8435 50.6782 15.4803 51.1645 15.0014 51.5268C14.5225 51.8891 13.9908 52.1107 13.4062 52.1916C12.8216 52.2726 12.2442 52.1974 11.674 51.9662C11.2523 51.7953 10.8845 51.555 10.5705 51.2453C10.2565 50.9356 10.0127 50.5796 9.83921 50.1773C9.66166 49.7733 9.56871 49.3452 9.56037 48.8929C9.55203 48.4406 9.64067 47.9856 9.82628 47.5278C10.0754 46.9133 10.4394 46.425 10.9183 46.0627C11.3972 45.7004 11.9289 45.4788 12.5135 45.3979C13.098 45.3169 13.6755 45.3921 14.2457 45.6233C14.6674 45.7942 15.0352 46.0345 15.3492 46.3442C15.6632 46.6539 15.9069 47.0099 16.0805 47.4122C16.254 47.8146 16.3469 48.2427 16.3593 48.6966C16.3676 49.1489 16.2782 49.6059 16.0909 50.0678ZM15.091 49.6623C15.2522 49.2648 15.3083 48.8784 15.2594 48.5032C15.2081 48.1223 15.0596 47.7792 14.814 47.4739C14.5644 47.1669 14.2227 46.9255 13.789 46.7497C13.3513 46.5722 12.938 46.5075 12.5491 46.5556C12.1578 46.598 11.8131 46.7388 11.5151 46.978C11.217 47.2172 10.9874 47.5356 10.8262 47.9332C10.665 48.3308 10.6081 48.7192 10.6554 49.0984C10.7043 49.4736 10.8536 49.8147 11.1032 50.1216C11.3505 50.4229 11.6929 50.6623 12.1307 50.8398C12.5644 51.0156 12.9769 51.0824 13.3682 51.0399C13.757 50.9919 14.1025 50.849 14.4046 50.6115C14.7026 50.3723 14.9314 50.0559 15.091 49.6623Z" fill="white"/>
<path d="M18.7152 43.9037L13.9877 41.3863L12.9612 43.314L12.0661 42.8374L14.6844 37.9206L15.5794 38.3972L14.5498 40.3306L19.2773 42.8481L18.7152 43.9037Z" fill="white"/>
<path d="M22.0255 38.7114C21.6558 39.2565 21.1989 39.6561 20.6548 39.9102C20.1107 40.1642 19.5444 40.2697 18.9558 40.2265C18.3672 40.1834 17.8183 39.9891 17.3091 39.6437C16.9325 39.3883 16.6231 39.0763 16.3809 38.7078C16.1386 38.3393 15.9747 37.9402 15.8892 37.5104C15.8001 37.0782 15.7988 36.6401 15.8853 36.1961C15.9718 35.7521 16.1537 35.3257 16.431 34.9169C16.8031 34.3682 17.2612 33.9668 17.8053 33.7127C18.3494 33.4587 18.9157 33.3532 19.5043 33.3964C20.0929 33.4395 20.6418 33.6338 21.151 33.9792C21.5276 34.2346 21.837 34.5466 22.0792 34.9151C22.3215 35.2836 22.4854 35.6827 22.5709 36.1125C22.6564 36.5422 22.6577 36.9803 22.5748 37.4268C22.4883 37.8708 22.3052 38.299 22.0255 38.7114ZM21.1325 38.1057C21.3733 37.7507 21.5091 37.3846 21.5397 37.0075C21.5692 36.6243 21.4958 36.2577 21.3195 35.9078C21.1397 35.5554 20.8561 35.2478 20.4688 34.9851C20.0779 34.72 19.6872 34.5703 19.2969 34.5359C18.9054 34.4955 18.5389 34.5611 18.1974 34.7326C17.8559 34.9042 17.5647 35.1675 17.3239 35.5225C17.0831 35.8776 16.9462 36.2455 16.9131 36.6262C16.8824 37.0033 16.957 37.3681 17.1369 37.7205C17.3156 38.0669 17.6005 38.3726 17.9914 38.6377C18.3787 38.9004 18.7681 39.052 19.1596 39.0924C19.5499 39.1267 19.9176 39.0593 20.2627 38.8902C20.6042 38.7187 20.8942 38.4572 21.1325 38.1057Z" fill="white"/>
<path d="M24.1176 35.2681L19.283 31.1204L20.0406 30.2373L23.5136 33.2169L22.453 27.4254L23.1217 26.6459L27.9564 30.7936L27.1988 31.6766L23.6863 28.6632L24.7652 34.5133L24.1176 35.2681ZM20.3123 28.1238C20.0104 28.4757 19.6695 28.72 19.2896 28.8566C18.9098 28.9932 18.5279 29.0224 18.1439 28.9442C17.7567 28.8632 17.3979 28.6724 17.0676 28.3719L17.7321 27.5974C18.0431 27.8871 18.3751 28.0292 18.7281 28.0237C19.0778 28.0154 19.3839 27.8583 19.6463 27.5524C19.9087 27.2466 20.016 26.9218 19.9682 26.5782C19.9199 26.2285 19.7276 25.9236 19.3912 25.6636L20.0599 24.8841C20.401 25.1653 20.6396 25.4928 20.7758 25.8665C20.9147 26.237 20.9456 26.6203 20.8683 27.0165C20.791 27.4126 20.6057 27.7818 20.3123 28.1238Z" fill="white"/>
<path d="M30.9715 27.683L26.8769 22.8034L31.3482 19.0513L35.4429 23.931L34.5267 24.6998L31.0838 20.5969L28.4449 22.8114L31.8877 26.9142L30.9715 27.683Z" fill="white"/>
<path d="M38.3276 22.1122C37.9537 22.3638 37.5824 22.5144 37.2136 22.5641C36.8449 22.6137 36.5015 22.5653 36.1836 22.4189C35.8632 22.2688 35.5882 22.023 35.3583 21.6815C35.1696 21.4011 35.0698 21.0974 35.0587 20.7706C35.0453 20.4401 35.1424 20.0954 35.3499 19.7363C35.5551 19.3737 35.887 19.0015 36.3457 18.6197C36.8019 18.2343 37.4029 17.8429 38.1488 17.4455L38.6656 18.1554C38.078 18.4463 37.6015 18.7278 37.2361 18.9998C36.8683 19.2682 36.5965 19.5242 36.4209 19.7677C36.2429 20.0077 36.1453 20.2353 36.1282 20.4505C36.1123 20.6597 36.1624 20.8505 36.2785 21.0231C36.4648 21.2999 36.71 21.4509 37.0142 21.476C37.3196 21.4951 37.6466 21.3874 37.9953 21.1527C38.2937 20.9519 38.5235 20.7189 38.6846 20.4538C38.8469 20.1827 38.931 19.9041 38.937 19.6181C38.9441 19.326 38.8606 19.0505 38.6864 18.7917L37.6921 17.3141C37.5252 17.066 37.3243 16.8878 37.0895 16.7794C36.8582 16.6687 36.6027 16.6343 36.3228 16.6764C36.043 16.7184 35.7485 16.8435 35.4393 17.0516C35.1625 17.2378 34.9153 17.4643 34.6977 17.7308C34.4801 17.9974 34.3084 18.3088 34.1825 18.6651L33.3652 18.1025C33.5424 17.6595 33.7751 17.2757 34.0633 16.9511C34.3516 16.6266 34.6557 16.3567 34.9756 16.1414C35.461 15.8148 35.9264 15.6138 36.372 15.5386C36.8152 15.4598 37.2294 15.5127 37.6148 15.6973C38.0002 15.8819 38.3465 16.2025 38.6538 16.6591L40.969 20.0996L40.0576 20.7129L39.6222 20.0658C39.6154 20.4516 39.4974 20.8235 39.2682 21.1815C39.0366 21.5358 38.7231 21.846 38.3276 22.1122Z" fill="white"/>
<path d="M43.4264 21.7913L39.2088 13.7277L40.1821 13.2186L40.625 14.0653C40.7026 13.6432 40.8688 13.2458 41.1236 12.8728C41.3803 12.4941 41.7794 12.1631 42.3208 11.8799C42.8814 11.5867 43.4441 11.4611 44.0089 11.5031C44.5717 11.5413 45.0906 11.7246 45.5657 12.0532C46.0446 12.3798 46.4316 12.8253 46.7269 13.3897C46.9418 13.8006 47.0755 14.2245 47.1281 14.6616C47.1825 15.0929 47.1553 15.513 47.0464 15.922C46.9356 16.3272 46.7467 16.6999 46.4796 17.0401C46.2143 17.3744 45.8686 17.6531 45.4424 17.876C44.9663 18.1251 44.5034 18.2547 44.054 18.2648C43.6063 18.2691 43.1871 18.1876 42.7964 18.0203L44.4805 21.24L43.4264 21.7913ZM44.7637 17.0133C45.1439 16.8145 45.4367 16.5562 45.6421 16.2384C45.8494 15.9148 45.9563 15.5582 45.9628 15.1685C45.971 14.7729 45.8667 14.3678 45.6498 13.9531C45.4309 13.5345 45.1576 13.2178 44.83 13.0028C44.5042 12.782 44.1503 12.6664 43.7683 12.6559C43.3901 12.6434 43.0109 12.7366 42.6308 12.9354C42.2507 13.1343 41.9559 13.3936 41.7466 13.7133C41.5412 14.0311 41.4343 14.3877 41.426 14.7833C41.4157 15.175 41.5201 15.5801 41.739 15.9987C41.9559 16.4134 42.2291 16.7301 42.5588 16.9489C42.8864 17.1639 43.2403 17.2795 43.6205 17.2959C44.0025 17.3063 44.3836 17.2121 44.7637 17.0133Z" fill="white"/>
<path d="M50.7833 15.2737L48.9017 10.2591L46.857 11.0264L46.5007 10.077L51.7162 8.12003L52.0724 9.0694L50.0215 9.83894L51.9031 14.8536L50.7833 15.2737Z" fill="white"/>
<path d="M54.974 13.7144L53.4484 7.52982L54.6096 7.24338L55.2105 9.67936L58.5615 8.85273L57.9606 6.41675L59.1218 6.13031L60.6474 12.3149L59.4862 12.6014L58.8044 9.83722L55.4533 10.6638L56.1352 13.428L54.974 13.7144Z" fill="white"/>
<path d="M65.0272 11.8204C64.3574 11.9113 63.748 11.8518 63.1992 11.642C62.6503 11.4322 62.1983 11.0978 61.843 10.6387C61.4871 10.1753 61.2641 9.61087 61.1738 8.9453C61.1085 8.46438 61.1295 8.00673 61.2368 7.57237C61.3483 7.13743 61.5318 6.74957 61.7874 6.4088C62.0472 6.06744 62.3654 5.78594 62.742 5.5643C63.1229 5.34207 63.5495 5.19892 64.0219 5.13484C64.5329 5.06552 65.0003 5.09395 65.4241 5.22012C65.8522 5.34571 66.2193 5.55391 66.5255 5.84472C66.8355 6.13065 67.0781 6.48475 67.2534 6.90701C67.4282 7.32497 67.5159 7.79411 67.5165 8.31442L62.3766 9.01171C62.4208 9.43427 62.5568 9.7919 62.7845 10.0846C63.0117 10.373 63.3111 10.5817 63.6828 10.7105C64.0588 10.8388 64.4873 10.8703 64.9682 10.8051C65.3203 10.7573 65.6563 10.6549 65.9761 10.4978C66.2959 10.3407 66.5697 10.1352 66.7976 9.88128L67.4197 10.6955C67.2364 10.891 67.0111 11.068 66.744 11.2267C66.4806 11.3805 66.2006 11.5081 65.9039 11.6096C65.6072 11.7111 65.3149 11.7813 65.0272 11.8204ZM62.3161 8.08191L66.2064 7.55413C66.117 7.02401 65.8955 6.63206 65.5418 6.3783C65.1876 6.12025 64.7185 6.03083 64.1345 6.11006C63.5677 6.18695 63.12 6.40074 62.7915 6.75141C62.4624 7.0978 62.304 7.5413 62.3161 8.08191Z" fill="white"/>
<path d="M69.0303 13.9034L68.8195 4.80588L69.9178 4.78045L69.9399 5.73569C70.1963 5.39166 70.5214 5.10889 70.915 4.88738C71.3129 4.66144 71.8172 4.5414 72.4281 4.52725C73.0606 4.5126 73.6207 4.64916 74.1085 4.93694C74.5962 5.22039 74.9803 5.6146 75.2607 6.11958C75.5455 6.62445 75.6952 7.1953 75.71 7.83213C75.7207 8.29568 75.6529 8.73503 75.5064 9.1502C75.3642 9.56094 75.1538 9.92557 74.8751 10.2441C74.5963 10.5583 74.2618 10.8088 73.8717 10.9956C73.4859 11.1779 73.0525 11.2746 72.5716 11.2857C72.0344 11.2982 71.5621 11.2094 71.1546 11.0195C70.7513 10.8251 70.4115 10.5664 70.1353 10.2434L70.2195 13.8759L69.0303 13.9034ZM72.3452 10.2117C72.7741 10.2018 73.151 10.0998 73.4759 9.90592C73.8051 9.70758 74.0588 9.43513 74.2372 9.08858C74.4198 8.73759 74.5056 8.32816 74.4948 7.86028C74.4839 7.38807 74.3791 6.98306 74.1806 6.64523C73.9863 6.30297 73.7202 6.04257 73.3823 5.86401C73.0487 5.68535 72.6675 5.60099 72.2386 5.61092C71.8097 5.62086 71.4306 5.72283 71.1014 5.91684C70.7765 6.11075 70.5227 6.3832 70.3401 6.73419C70.1574 7.08085 70.0715 7.49028 70.0825 7.96248C70.0933 8.43036 70.1981 8.83538 70.3967 9.17753C70.5952 9.51536 70.8613 9.77577 71.195 9.95876C71.5329 10.1373 71.9163 10.2216 72.3452 10.2117Z" fill="white"/>
<path d="M81.1017 11.6062L82.1555 3.8384L79.6049 4.41072L79.416 3.43396L83.3946 2.53717L83.4848 2.54941L82.2353 11.76L81.1017 11.6062Z" fill="white"/>
<path d="M88.1785 13.1509C87.2664 12.9223 86.5152 12.5329 85.9249 11.9828C85.3399 11.4296 84.9446 10.7609 84.7392 9.97674C84.5389 9.18941 84.5548 8.33339 84.7866 7.40868C84.9542 6.74037 85.2194 6.15462 85.5823 5.65144C85.9463 5.14406 86.3838 4.73552 86.8948 4.42582C87.4058 4.11612 87.9671 3.91734 88.5789 3.82947C89.1948 3.74265 89.8327 3.78197 90.4926 3.94742C91.1441 4.11076 91.6931 4.33551 92.1396 4.62168C92.5871 4.90365 92.95 5.23811 93.2283 5.62506L92.3544 6.43793C92.1328 6.10988 91.8487 5.83538 91.502 5.61444C91.1554 5.3935 90.753 5.22559 90.2948 5.11073C89.7778 4.98111 89.2891 4.94347 88.8287 4.99781C88.3684 5.05215 87.951 5.19323 87.5767 5.42104C87.2077 5.6457 86.8901 5.95028 86.6239 6.33476C86.3578 6.71924 86.1583 7.17629 86.0255 7.70589C85.8422 8.43726 85.8265 9.09674 85.9785 9.68435C86.1347 10.273 86.4391 10.7693 86.8918 11.1732C87.3456 11.5728 87.9276 11.8617 88.638 12.0398C89.0961 12.1547 89.5522 12.1976 90.0063 12.1684C90.4656 12.1362 90.9192 12.0109 91.367 11.7926L91.669 12.9405C91.1507 13.1724 90.6009 13.3071 90.0197 13.3445C89.4437 13.3788 88.83 13.3143 88.1785 13.1509Z" fill="white"/>
<path d="M93.9797 11.3764L94.3414 10.4014L97.5348 11.5859L97.1731 12.561L93.9797 11.3764Z" fill="white"/>
<path d="M97.7086 16.1257L101.746 7.9704L106.732 10.439L106.248 11.4176L102.357 9.4912L101.148 11.932L102.715 12.7077C103.577 13.1345 104.171 13.6797 104.495 14.3431C104.825 15.0046 104.799 15.7217 104.416 16.4945C104.164 17.0033 103.836 17.3776 103.432 17.6176C103.034 17.8556 102.573 17.9611 102.05 17.9341C101.532 17.9051 100.969 17.7397 100.359 17.4379L97.7086 16.1257ZM99.2478 15.7708L100.786 16.5321C101.357 16.8148 101.857 16.9077 102.287 16.8111C102.717 16.7144 103.049 16.4292 103.283 15.9554C103.508 15.501 103.532 15.063 103.354 14.6412C103.182 14.2175 102.826 13.872 102.286 13.6048L100.707 12.8232L99.2478 15.7708Z" fill="white"/>
<path d="M104.211 19.3927L107.748 14.0948L108.715 14.7409L106.175 18.5467L111.797 16.7981L112.651 17.3683L109.114 22.6661L108.146 22.0201L110.716 18.1711L105.038 19.9449L104.211 19.3927Z" fill="white"/>
<path d="M112.274 25.1607L115.702 21.0453L114.024 19.6476L114.673 18.8684L118.953 22.4336L118.304 23.2127L116.621 21.8108L113.193 25.9262L112.274 25.1607Z" fill="white"/>
<path d="M113.873 30.1274L120.514 23.9065L121.265 24.7083L120.568 25.3615C120.995 25.3233 121.423 25.3772 121.85 25.523C122.284 25.669 122.71 25.965 123.127 26.4109C123.56 26.8726 123.831 27.3813 123.942 27.9367C124.056 28.4892 124.018 29.0383 123.828 29.5839C123.642 30.1327 123.316 30.6248 122.851 31.0603C122.513 31.3773 122.14 31.6195 121.733 31.7871C121.332 31.9549 120.92 32.041 120.497 32.0456C120.076 32.0471 119.667 31.9648 119.268 31.7984C118.874 31.6323 118.513 31.3737 118.185 31.0226C117.817 30.6304 117.569 30.2192 117.439 29.7888C117.315 29.3586 117.281 28.9329 117.338 28.5116L114.686 30.9955L113.873 30.1274ZM118.834 30.1379C119.128 30.451 119.455 30.6641 119.816 30.7771C120.183 30.8902 120.556 30.8978 120.933 30.7998C121.316 30.702 121.679 30.4931 122.02 30.1732C122.365 29.8503 122.597 29.5022 122.716 29.1291C122.842 28.7561 122.859 28.3841 122.767 28.0132C122.678 27.6455 122.486 27.3051 122.193 26.992C121.9 26.6789 121.571 26.4642 121.207 26.3481C120.846 26.2351 120.474 26.2275 120.09 26.3253C119.71 26.4202 119.348 26.6291 119.003 26.952C118.661 27.2719 118.429 27.6199 118.307 27.9961C118.187 28.3693 118.17 28.7412 118.256 29.1119C118.348 29.4828 118.541 29.8248 118.834 30.1379Z" fill="white"/>
<path d="M120.952 33.7661L126.117 30.0378L126.798 30.9811L123.088 33.6594L128.967 33.9852L129.568 34.818L124.403 38.5463L123.722 37.6029L127.475 34.8941L121.535 34.5724L120.952 33.7661Z" fill="white"/>
<path d="M127.422 43.6344L129.307 40.0803L132.844 40.2838L133.482 41.4014L129.999 41.1746L128.137 44.8875L127.422 43.6344ZM125.304 39.926L130.836 36.7672L131.429 37.8058L129.25 39.05L130.194 40.7038L129.314 41.2066L128.369 39.5528L125.897 40.9646L125.304 39.926Z" fill="white"/>
<path d="M129.49 48.4175C129.214 47.8049 129.104 47.2011 129.16 46.606C129.215 46.0109 129.414 45.475 129.755 44.9984C130.101 44.5199 130.568 44.1483 131.157 43.8836C131.604 43.6828 132.05 43.577 132.497 43.5663C132.945 43.5595 133.373 43.6402 133.781 43.8083C134.19 43.9763 134.557 44.2223 134.883 44.546C135.215 44.8719 135.485 45.2681 135.695 45.7344C135.866 46.1139 135.973 46.4858 136.019 46.8504C136.064 47.215 136.045 47.5798 135.962 47.9449L134.87 47.7661C134.944 47.519 134.965 47.2599 134.934 46.989C134.906 46.7164 134.833 46.4476 134.714 46.1828C134.518 45.7481 134.265 45.408 133.955 45.1625C133.651 44.9191 133.304 44.7807 132.914 44.7472C132.523 44.7137 132.109 44.7955 131.67 44.9928C131.01 45.2895 130.577 45.712 130.373 46.2602C130.173 46.8106 130.22 47.4119 130.514 48.064C130.649 48.3644 130.828 48.621 131.052 48.8339C131.28 49.045 131.518 49.1944 131.767 49.2822L131.19 50.2186C130.824 50.0173 130.492 49.7651 130.194 49.4619C129.9 49.1569 129.665 48.8088 129.49 48.4175Z" fill="white"/>
</svg>
